# xmcd
#
# Track frame offsets:
#	150
#	11145
#	27415
#	42641
#	54161
#	65708
#	82452
#	86039
#	100088
#	120945
#	129510
#	145581
#	158719
#	172699
#
# Disc length: 2591 seconds
#
# Revision: 1
# Processed by: cddbd v1.5.2PL0 Copyright (c) Steve Scherf et al.
# Submitted via: audiograbber 1.83.01
#
DISCID=b50a1d0e
DTITLE=Los Ex - Pistola De Plástico
DYEAR=2008
DGENRE=Rock
TTITLE0=Idiota
TTITLE1=Tienen Grandes Camionetas
TTITLE2=Las Pastillas
TTITLE3=Infancia
TTITLE4=Hernán
TTITLE5=No Llores, Niña
TTITLE6=Ooh!
TTITLE7=Querido
TTITLE8=Las Olas De Marte
TTITLE9=Resbaloso
TTITLE10=Ando Todo Gris
TTITLE11=No Voy A Estar Cuando Te Caigas
TTITLE12=Golpes En El Corredor
TTITLE13=Lola
EXTD=http://www.sello-ovejanegra.cl/
EXTT0=
EXTT1=
EXTT2=
EXTT3=
EXTT4=
EXTT5=
EXTT6=
EXTT7=
EXTT8=
EXTT9=
EXTT10=
EXTT11=
EXTT12=
EXTT13=
PLAYORDER=
